<svg width="600" height="400" xmlns="http://www.w3.org/2000/svg">
  <!-- Background -->
  <rect width="600" height="400" fill="#f3f4f6" rx="10" ry="10"/>
  
  <!-- Server Icon -->
  <rect x="150" y="100" width="300" height="200" rx="10" ry="10" fill="#2563eb" opacity="0.9"/>
  <rect x="170" y="120" width="260" height="20" rx="5" ry="5" fill="white" opacity="0.7"/>
  <rect x="170" y="150" width="260" height="20" rx="5" ry="5" fill="white" opacity="0.7"/>
  <rect x="170" y="180" width="260" height="20" rx="5" ry="5" fill="white" opacity="0.7"/>
  <rect x="170" y="210" width="260" height="20" rx="5" ry="5" fill="white" opacity="0.7"/>
  <rect x="170" y="240" width="260" height="20" rx="5" ry="5" fill="white" opacity="0.7"/>
  
  <!-- Decorative Elements -->
  <circle cx="100" cy="80" r="40" fill="#3b82f6" opacity="0.5"/>
  <circle cx="500" cy="320" r="50" fill="#3b82f6" opacity="0.5"/>
  <circle cx="450" cy="50" r="30" fill="#3b82f6" opacity="0.5"/>
  <circle cx="150" cy="350" r="25" fill="#3b82f6" opacity="0.5"/>
  
  <!-- Lines representing connections -->
  <line x1="100" y1="80" x2="150" y2="100" stroke="#2563eb" stroke-width="3" opacity="0.7"/>
  <line x1="450" y1="50" x2="400" y2="100" stroke="#2563eb" stroke-width="3" opacity="0.7"/>
  <line x1="500" y1="320" x2="450" y2="300" stroke="#2563eb" stroke-width="3" opacity="0.7"/>
  <line x1="150" y1="350" x2="200" y2="300" stroke="#2563eb" stroke-width="3" opacity="0.7"/>
</svg> 